# xmcd
#
# Track frame offsets: 
#        150
#        2369
#        6467
#        41610
#        47537
#        71258
#        112817
#        119558
#        144629
#        188641
#        195006
#        209965
#        220421
#        229773
#        241491
#        263033
#
# Disc length: 3692 seconds
#
# Revision: 0
# Processed by: cddbd v1.5.2PL0 Copyright (c) Steve Scherf et al.
# Submitted via: ExactAudioCopyFreeDBPlugin 1.0
#
DISCID=dd0e6a10
DTITLE=Stefan Grossman - Fingerpicking Guitar Exercises and Hot Licks Le
DTITLE=sson 2
DYEAR=1999
DGENRE=Instructional
TTITLE0=Introduction
TTITLE1=Tuning
TTITLE2=Blues Vibratos - Ex.01a
TTITLE3=Blues Vibratos - Ex.01b
TTITLE4=Blues Vibratos - Ex.01c
TTITLE5=Blues Vibratos - Ex.01d
TTITLE6=Blues Vibratos - Ex.01e
TTITLE7=The Syncopated Bass - Ex.01
TTITLE8=The Syncopated Bass - Ex.02a
TTITLE9=The Syncopated Bass - Ex.02b
TTITLE10=Rhythmic Licks - Ex.01
TTITLE11=Rhythmic Licks - Ex.02
TTITLE12=Rhythmic Licks - Ex.03
TTITLE13=Rhythmic Licks - Ex.04
TTITLE14=Rhythmic Licks - Ex.05a
TTITLE15=Rhythmic Licks - Ex.05b
EXTD=
EXTT0=
EXTT1=
EXTT2=
EXTT3=
EXTT4=
EXTT5=
EXTT6=
EXTT7=
EXTT8=
EXTT9=
EXTT10=
EXTT11=
EXTT12=
EXTT13=
EXTT14=
EXTT15=
PLAYORDER=
